<svg xmlns="http://www.w3.org/2000/svg" viewBox="0 0 900 675" role="img" aria-label="Ички дубал боёгу ак 10 л">
  <defs>
    <linearGradient id="bucket" x1="0" x2="1" y1="0" y2="1">
      <stop offset="0" stop-color="#ffffff"/>
      <stop offset="0.6" stop-color="#eef3ee"/>
      <stop offset="1" stop-color="#cbd5ce"/>
    </linearGradient>
    <filter id="paintShadow" x="-20%" y="-20%" width="140%" height="140%">
      <feDropShadow dx="0" dy="18" stdDeviation="14" flood-color="#1f2d25" flood-opacity="0.17"/>
    </filter>
  </defs>
  <rect width="900" height="675" fill="#f7f8f4"/>
  <ellipse cx="450" cy="552" rx="250" ry="32" fill="#cfd7cf"/>
  <g transform="translate(242 88)" filter="url(#paintShadow)">
    <path d="M88 112h264l42 344c5 40-27 75-67 75H113c-40 0-72-35-67-75l42-344Z" fill="url(#bucket)" stroke="#b8c5bd" stroke-width="11"/>
    <ellipse cx="220" cy="112" rx="132" ry="48" fill="#f7faf8" stroke="#b8c5bd" stroke-width="11"/>
    <ellipse cx="220" cy="112" rx="86" ry="23" fill="#ffffff" stroke="#dce5dd" stroke-width="5"/>
    <path d="M129 128c12 62 169 62 184 0" fill="none" stroke="#8fa19a" stroke-width="13" stroke-linecap="round"/>
    <path d="M82 270h278l22 124H60l22-124Z" fill="#2d6a4f" stroke="#1b4332" stroke-width="5" stroke-linejoin="round"/>
    <text x="221" y="324" text-anchor="middle" font-family="Arial, sans-serif" font-size="35" font-weight="800" fill="#fff">INTERIOR</text>
    <text x="221" y="365" text-anchor="middle" font-family="Arial, sans-serif" font-size="32" font-weight="800" fill="#f0b05a">10 л</text>
    <path d="M112 424h220M121 457h198M132 488h176" stroke="#aab8ae" stroke-width="7" stroke-linecap="round"/>
    <path d="M104 150c-22 93-19 239 9 346" fill="none" stroke="#fff" stroke-width="7" stroke-linecap="round" opacity="0.75"/>
    <path d="M330 152c24 112 29 234 2 341" fill="none" stroke="#9ca9a1" stroke-width="5" stroke-linecap="round" opacity="0.7"/>
    <path d="M128 206h184" stroke="#dce5dd" stroke-width="11" stroke-linecap="round"/>
    <path d="M160 230h122" stroke="#f0b05a" stroke-width="8" stroke-linecap="round"/>
  </g>
</svg>
