<svg xmlns="http://www.w3.org/2000/svg" viewBox="0 0 900 675" role="img" aria-label="Ашкана смесители Basic">
  <defs>
    <linearGradient id="chrome" x1="0" x2="1" y1="0" y2="1">
      <stop offset="0" stop-color="#f8fafc"/>
      <stop offset="0.3" stop-color="#cbd5e1"/>
      <stop offset="0.55" stop-color="#ffffff"/>
      <stop offset="1" stop-color="#94a3b8"/>
    </linearGradient>
    <linearGradient id="greenBase" x1="0" x2="1">
      <stop offset="0" stop-color="#1b4332"/>
      <stop offset="1" stop-color="#2d6a4f"/>
    </linearGradient>
    <filter id="tapShadow" x="-20%" y="-20%" width="140%" height="140%">
      <feDropShadow dx="0" dy="18" stdDeviation="14" flood-color="#1f2d25" flood-opacity="0.18"/>
    </filter>
  </defs>
  <rect width="900" height="675" fill="#f7f8f4"/>
  <ellipse cx="450" cy="552" rx="230" ry="32" fill="#cfd7cf"/>
  <g transform="translate(214 94)" filter="url(#tapShadow)" fill="none" stroke-linecap="round" stroke-linejoin="round">
    <path d="M236 414V184c0-86 70-156 156-156h24c86 0 156 70 156 156v31" stroke="url(#chrome)" stroke-width="56"/>
    <path d="M236 414V184c0-86 70-156 156-156h24c86 0 156 70 156 156v31" stroke="#64748b" stroke-width="7" opacity="0.45"/>
    <path d="M572 215h82c48 0 88 39 88 88v22" stroke="url(#chrome)" stroke-width="50"/>
    <path d="M654 325h78" stroke="url(#chrome)" stroke-width="42"/>
    <path d="M724 325v78" stroke="#94a3b8" stroke-width="21"/>
    <path d="M700 426c0 42 48 42 48 0" stroke="#94a3b8" stroke-width="15"/>

    <path d="M180 414h216" stroke="url(#greenBase)" stroke-width="62"/>
    <path d="M130 466h318" stroke="#1b4332" stroke-width="30"/>
    <path d="M190 374h196" stroke="#173f31" stroke-width="18" opacity="0.45"/>
    <rect x="248" y="314" width="96" height="42" rx="21" fill="#f0b05a" stroke="#1b4332" stroke-width="8"/>
    <path d="M294 314v-58" stroke="#f0b05a" stroke-width="25"/>
    <path d="M246 256h100" stroke="#d88726" stroke-width="18"/>
    <path d="M370 64c46 6 91 38 117 77" stroke="#fff" stroke-width="7" opacity="0.65"/>
    <path d="M258 198c-8 62-8 136 0 206" stroke="#fff" stroke-width="6" opacity="0.45"/>
  </g>
</svg>
