<svg xmlns="http://www.w3.org/2000/svg" viewBox="0 0 900 520" role="img" aria-label="StroyRayon бак короо категориясы">
  <defs>
    <linearGradient id="bg" x1="0" x2="1" y1="0" y2="1"><stop stop-color="#f8fbf7"/><stop offset="1" stop-color="#e7efe8"/></linearGradient>
    <filter id="s" x="-20%" y="-20%" width="140%" height="140%"><feDropShadow dx="0" dy="14" stdDeviation="12" flood-color="#1f2d25" flood-opacity=".14"/></filter>
  </defs>
  <rect width="900" height="520" fill="url(#bg)"/>
  <ellipse cx="450" cy="430" rx="320" ry="36" fill="#cbd7cf"/>
  <g filter="url(#s)" fill="none" stroke-linecap="round" stroke-linejoin="round">
    <circle cx="262" cy="250" r="126" stroke="#1b4332" stroke-width="42"/>
    <circle cx="262" cy="250" r="72" stroke="#8fc2a5" stroke-width="28"/>
    <path d="M372 308c58 0 98 28 132 72 28 36 76 50 122 30" stroke="#2d6a4f" stroke-width="42"/>
    <rect x="610" y="338" width="74" height="58" rx="10" fill="#f0b05a" stroke="#1b4332" stroke-width="9"/>
    <path d="M646 396v42M620 438h52" stroke="#1b4332" stroke-width="12"/>
    <path d="M590 138l44 244" stroke="#8fa19a" stroke-width="18"/>
    <path d="M548 138h84" stroke="#2d6a4f" stroke-width="24"/>
    <path d="M690 176c48 24 78 72 78 128v74" stroke="#2d6a4f" stroke-width="28"/>
    <path d="M768 378h-88" stroke="#2d6a4f" stroke-width="28"/>
  </g>
</svg>
