<svg xmlns="http://www.w3.org/2000/svg" viewBox="0 0 900 520" role="img" aria-label="StroyRayon боёк жана туш кагаз категориясы">
  <defs>
    <linearGradient id="bg" x1="0" x2="1" y1="0" y2="1"><stop stop-color="#f8fbf7"/><stop offset="1" stop-color="#e7efe8"/></linearGradient>
    <filter id="s" x="-20%" y="-20%" width="140%" height="140%"><feDropShadow dx="0" dy="14" stdDeviation="12" flood-color="#1f2d25" flood-opacity=".14"/></filter>
  </defs>
  <rect width="900" height="520" fill="url(#bg)"/>
  <ellipse cx="450" cy="430" rx="320" ry="36" fill="#cbd7cf"/>
  <g filter="url(#s)">
    <path d="M166 174h190l32 190c6 38-24 72-63 72H197c-39 0-69-34-63-72z" fill="#fff" stroke="#cbd5ce" stroke-width="9"/>
    <ellipse cx="261" cy="174" rx="95" ry="32" fill="#f7faf8" stroke="#cbd5ce" stroke-width="9"/>
    <path d="M157 270h212l18 78H139z" fill="#2d6a4f"/>
    <path d="M198 312h126" stroke="#fff" stroke-width="12" stroke-linecap="round"/>
    <path d="M194 210c10 35 122 35 135 0" fill="none" stroke="#8fa19a" stroke-width="10" stroke-linecap="round"/>
    <rect x="468" y="166" width="70" height="205" rx="20" fill="#f0b05a" stroke="#a85f1e" stroke-width="8"/>
    <path d="M538 208h146" stroke="#374151" stroke-width="15" stroke-linecap="round"/>
    <rect x="670" y="182" width="92" height="54" rx="12" fill="#2d6a4f" stroke="#173f31" stroke-width="7"/>
    <path d="M604 294h128c32 0 58 26 58 58v38" fill="none" stroke="#b8c5bd" stroke-width="30" stroke-linecap="round"/>
    <rect x="588" y="378" width="144" height="48" rx="16" fill="#dfe8df" stroke="#9ba99e" stroke-width="7"/>
  </g>
</svg>
