<svg xmlns="http://www.w3.org/2000/svg" viewBox="0 0 900 520" role="img" aria-label="StroyRayon электрика категориясы">
  <defs>
    <linearGradient id="bg" x1="0" x2="1" y1="0" y2="1"><stop stop-color="#f8fbf7"/><stop offset="1" stop-color="#e7efe8"/></linearGradient>
    <filter id="s" x="-20%" y="-20%" width="140%" height="140%"><feDropShadow dx="0" dy="14" stdDeviation="12" flood-color="#1f2d25" flood-opacity=".14"/></filter>
  </defs>
  <rect width="900" height="520" fill="url(#bg)"/>
  <ellipse cx="450" cy="430" rx="320" ry="36" fill="#cbd7cf"/>
  <g filter="url(#s)">
    <path d="M140 290c80-112 222-112 302 0" fill="none" stroke="#1b4332" stroke-width="52" stroke-linecap="round"/>
    <path d="M161 290c68-80 192-80 260 0" fill="none" stroke="#2d6a4f" stroke-width="30" stroke-linecap="round"/>
    <circle cx="438" cy="296" r="22" fill="#f0b05a"/>
    <circle cx="494" cy="306" r="22" fill="#dfe8df" stroke="#8fa19a" stroke-width="5"/>
    <circle cx="550" cy="292" r="22" fill="#9ca3af" stroke="#4b5563" stroke-width="5"/>
    <rect x="568" y="136" width="158" height="220" rx="18" fill="#eef3ee" stroke="#9ba99e" stroke-width="8"/>
    <rect x="594" y="170" width="106" height="42" rx="8" fill="#2d6a4f"/>
    <rect x="594" y="232" width="106" height="42" rx="8" fill="#f0b05a"/>
    <rect x="594" y="294" width="106" height="28" rx="7" fill="#cbd5ce"/>
    <rect x="184" y="318" width="104" height="80" rx="16" fill="#fff" stroke="#cbd5ce" stroke-width="8"/>
    <circle cx="220" cy="358" r="10" fill="#374151"/><circle cx="254" cy="358" r="10" fill="#374151"/>
  </g>
</svg>
