<svg xmlns="http://www.w3.org/2000/svg" viewBox="0 0 900 520" role="img" aria-label="StroyRayon инструмент категориясы">
  <defs>
    <linearGradient id="bg" x1="0" x2="1" y1="0" y2="1"><stop stop-color="#f8fbf7"/><stop offset="1" stop-color="#e7efe8"/></linearGradient>
    <filter id="s" x="-20%" y="-20%" width="140%" height="140%"><feDropShadow dx="0" dy="14" stdDeviation="12" flood-color="#1f2d25" flood-opacity=".14"/></filter>
  </defs>
  <rect width="900" height="520" fill="url(#bg)"/>
  <ellipse cx="456" cy="430" rx="330" ry="36" fill="#cbd7cf"/>
  <g filter="url(#s)" stroke-linejoin="round">
    <path d="M205 215h212c42 0 78 34 78 76v24H205z" fill="#2d6a4f" stroke="#173f31" stroke-width="8"/>
    <path d="M420 236h78l74 30v58l-74 30h-78z" fill="#173f31" stroke="#173f31" stroke-width="8"/>
    <path d="M572 295h92" stroke="#374151" stroke-width="18" stroke-linecap="round"/>
    <path d="M248 315h130l-32 116h-76z" fill="#1b4332" stroke="#173f31" stroke-width="8"/>
    <circle cx="372" cy="258" r="31" fill="#f0b05a" stroke="#173f31" stroke-width="7"/>
    <path d="M654 180l62 62-130 130-62-62z" fill="#d8dee4" stroke="#6b7280" stroke-width="7"/>
    <path d="M704 170l32 32" stroke="#f0b05a" stroke-width="20" stroke-linecap="round"/>
    <path d="M156 386h210" stroke="#f0b05a" stroke-width="18" stroke-linecap="round"/>
    <path d="M170 370h182" stroke="#1b4332" stroke-width="10" stroke-linecap="round"/>
  </g>
</svg>
