<svg xmlns="http://www.w3.org/2000/svg" viewBox="0 0 900 520" role="img" aria-label="StroyRayon крепеж категориясы">
  <defs>
    <linearGradient id="bg" x1="0" x2="1" y1="0" y2="1"><stop stop-color="#f8fbf7"/><stop offset="1" stop-color="#e7efe8"/></linearGradient>
    <filter id="s" x="-20%" y="-20%" width="140%" height="140%"><feDropShadow dx="0" dy="14" stdDeviation="12" flood-color="#1f2d25" flood-opacity=".14"/></filter>
  </defs>
  <rect width="900" height="520" fill="url(#bg)"/>
  <ellipse cx="450" cy="430" rx="320" ry="36" fill="#cbd7cf"/>
  <g filter="url(#s)" stroke-linecap="round" stroke-linejoin="round">
    <g transform="translate(168 190) rotate(-24)">
      <path d="M0 82h260" stroke="#111827" stroke-width="32"/>
      <path d="M28 66 54 102M84 64l30 42M142 64l30 42M198 66l26 38" stroke="#d1d5db" stroke-width="7"/>
      <ellipse cx="-22" cy="82" rx="52" ry="38" fill="#374151" stroke="#111827" stroke-width="7"/>
      <path d="M-50 82h56M-22 60v44" stroke="#cbd5e1" stroke-width="8"/>
      <path d="M260 82l76-38v76z" fill="#111827"/>
    </g>
    <path d="M520 170h128l40 198H480z" fill="#dfe8df" stroke="#8fa19a" stroke-width="8"/>
    <path d="M536 202h98M526 244h126M516 286h142" stroke="#9ba99e" stroke-width="8"/>
    <circle cx="592" cy="344" r="32" fill="#f0b05a" stroke="#a85f1e" stroke-width="7"/>
    <path d="M610 122h110v44H610z" fill="#2d6a4f" stroke="#173f31" stroke-width="7"/>
  </g>
</svg>
