<svg xmlns="http://www.w3.org/2000/svg" viewBox="0 0 900 520" role="img" aria-label="StroyRayon стройматериал категориясы">
  <defs>
    <linearGradient id="bg" x1="0" x2="1" y1="0" y2="1"><stop stop-color="#f8fbf7"/><stop offset="1" stop-color="#e7efe8"/></linearGradient>
    <filter id="s" x="-20%" y="-20%" width="140%" height="140%"><feDropShadow dx="0" dy="14" stdDeviation="12" flood-color="#1f2d25" flood-opacity=".14"/></filter>
  </defs>
  <rect width="900" height="520" fill="url(#bg)"/>
  <ellipse cx="450" cy="438" rx="330" ry="38" fill="#cbd7cf"/>
  <g filter="url(#s)">
    <path d="M132 282h160v118H132z" fill="#d98746" stroke="#a85727" stroke-width="6"/>
    <path d="M132 322h160M184 282v40M238 322v78" stroke="#b76632" stroke-width="6"/>
    <path d="M320 162h168l38 236H286l34-236z" fill="#dfcfad" stroke="#8e7856" stroke-width="6"/>
    <path d="M338 220h150M326 342h174" stroke="#b49c70" stroke-width="7" stroke-linecap="round"/>
    <path d="M338 266h150l14 62H324z" fill="#245c45"/>
    <path d="M570 182h142v218H570z" fill="#e8e3d2" stroke="#b7b19f" stroke-width="7"/>
    <path d="M594 208h94M594 244h94M594 280h94M594 316h94" stroke="#c4bdad" stroke-width="6"/>
    <path d="M672 138h82v262h-82z" fill="#dfe6dc" stroke="#9ba99e" stroke-width="6"/>
    <path d="M684 160h58M684 194h58M684 228h58" stroke="#aab7ad" stroke-width="5"/>
  </g>
</svg>
