<svg xmlns="http://www.w3.org/2000/svg" viewBox="0 0 900 520" role="img" aria-label="StroyRayon вентиляция категориясы">
  <defs>
    <linearGradient id="bg" x1="0" x2="1" y1="0" y2="1"><stop stop-color="#f8fbf7"/><stop offset="1" stop-color="#e7efe8"/></linearGradient>
    <filter id="s" x="-20%" y="-20%" width="140%" height="140%"><feDropShadow dx="0" dy="14" stdDeviation="12" flood-color="#1f2d25" flood-opacity=".14"/></filter>
  </defs>
  <rect width="900" height="520" fill="url(#bg)"/>
  <ellipse cx="450" cy="430" rx="320" ry="36" fill="#cbd7cf"/>
  <g filter="url(#s)">
    <rect x="142" y="142" width="252" height="252" rx="30" fill="#fff" stroke="#cbd5ce" stroke-width="12"/>
    <rect x="186" y="186" width="164" height="164" rx="16" fill="#eef3ee" stroke="#dce5dd" stroke-width="7"/>
    <g stroke="#2d6a4f" stroke-width="13" stroke-linecap="round">
      <path d="M210 218h116M210 254h116M210 290h116M210 326h116"/>
    </g>
    <circle cx="268" cy="272" r="38" fill="#fff" stroke="#f0b05a" stroke-width="12"/>
    <path d="M454 192h180c66 0 120 54 120 120v28" fill="none" stroke="#b8c5bd" stroke-width="46" stroke-linecap="round"/>
    <path d="M454 192h180c66 0 120 54 120 120v28" fill="none" stroke="#eef3ee" stroke-width="24" stroke-linecap="round"/>
    <rect x="675" y="318" width="118" height="74" rx="14" fill="#dfe8df" stroke="#9ba99e" stroke-width="8"/>
  </g>
</svg>
