<svg xmlns="http://www.w3.org/2000/svg" viewBox="0 0 900 675" role="img" aria-label="Дрель 650W">
  <defs>
    <linearGradient id="drillBody" x1="0" x2="1" y1="0" y2="1">
      <stop offset="0" stop-color="#3b8b68"/>
      <stop offset="0.55" stop-color="#2d6a4f"/>
      <stop offset="1" stop-color="#1b4332"/>
    </linearGradient>
    <linearGradient id="darkGrip" x1="0" x2="1">
      <stop offset="0" stop-color="#173f31"/>
      <stop offset="1" stop-color="#0f2f24"/>
    </linearGradient>
    <filter id="drillShadow" x="-20%" y="-20%" width="140%" height="140%">
      <feDropShadow dx="0" dy="18" stdDeviation="14" flood-color="#1f2d25" flood-opacity="0.18"/>
    </filter>
  </defs>
  <rect width="900" height="675" fill="#f7f8f4"/>
  <ellipse cx="466" cy="548" rx="252" ry="34" fill="#cfd7cf"/>
  <g transform="translate(145 172)" filter="url(#drillShadow)" stroke-linejoin="round">
    <path d="M120 112h312c56 0 102 46 102 102v34H120V112Z" fill="url(#drillBody)" stroke="#16382b" stroke-width="8"/>
    <path d="M440 138h96l86 38v80l-86 38h-96V138Z" fill="url(#darkGrip)" stroke="#16382b" stroke-width="8"/>
    <path d="M618 197h88c18 0 34 15 34 34s-16 34-34 34h-88Z" fill="#111827" stroke="#1f2937" stroke-width="8"/>
    <path d="M702 214h74" stroke="#4b5563" stroke-width="18" stroke-linecap="round"/>
    <path d="M762 206h45v34h-45z" fill="#9ca3af" stroke="#4b5563" stroke-width="7"/>

    <path d="M160 248h190l-38 204H190l-30-204Z" fill="#173f31" stroke="#16382b" stroke-width="8"/>
    <path d="M202 452h124c22 0 40 18 40 40H178c0-22 18-40 40-40Z" fill="#132f25" stroke="#16382b" stroke-width="8"/>
    <path d="M232 278h58l-20 96h-52Z" fill="#f0b05a" stroke="#16382b" stroke-width="7"/>

    <circle cx="382" cy="181" r="42" fill="#f0b05a" stroke="#16382b" stroke-width="8"/>
    <circle cx="382" cy="181" r="18" fill="#fff3d6" opacity="0.85"/>
    <path d="M72 148h70v106H72c-38 0-70-31-70-70v-36h70Z" fill="#f0b05a" stroke="#16382b" stroke-width="8"/>
    <path d="M102 172h32v58h-32c-18 0-32-14-32-32v-26h32Z" fill="#d88726" opacity="0.65"/>

    <g stroke-linecap="round">
      <path d="M174 154h132M174 188h116M174 222h86" stroke="#dfe8df" stroke-width="11"/>
      <path d="M468 164h50M468 194h64M468 224h52" stroke="#3f7b62" stroke-width="9"/>
      <path d="M210 306h76M204 338h70M198 370h60" stroke="#2d6a4f" stroke-width="9"/>
    </g>
    <text x="314" y="211" font-family="Arial, sans-serif" font-size="28" font-weight="800" fill="#f7f8f4">650W</text>
  </g>
</svg>
