<svg xmlns="http://www.w3.org/2000/svg" viewBox="0 0 900 675" role="img" aria-label="Вентиляция решеткасы 150x150 мм">
  <defs>
    <linearGradient id="ventFrame" x1="0" x2="1" y1="0" y2="1">
      <stop offset="0" stop-color="#ffffff"/>
      <stop offset="0.55" stop-color="#edf2ee"/>
      <stop offset="1" stop-color="#cbd5ce"/>
    </linearGradient>
    <filter id="ventShadow" x="-20%" y="-20%" width="140%" height="140%">
      <feDropShadow dx="0" dy="18" stdDeviation="14" flood-color="#1f2d25" flood-opacity="0.17"/>
    </filter>
  </defs>
  <rect width="900" height="675" fill="#f7f8f4"/>
  <ellipse cx="450" cy="548" rx="210" ry="32" fill="#cfd7cf"/>
  <g transform="translate(242 110)" filter="url(#ventShadow)">
    <rect x="0" y="0" width="416" height="416" rx="38" fill="url(#ventFrame)" stroke="#b8c5bd" stroke-width="13"/>
    <rect x="54" y="54" width="308" height="308" rx="20" fill="#eef3ee" stroke="#dce5dd" stroke-width="8"/>
    <g fill="#b8c5bd">
      <circle cx="52" cy="52" r="12"/>
      <circle cx="364" cy="52" r="12"/>
      <circle cx="52" cy="364" r="12"/>
      <circle cx="364" cy="364" r="12"/>
    </g>
    <g stroke="#2d6a4f" stroke-width="16" stroke-linecap="round">
      <path d="M92 112h232"/>
      <path d="M92 154h232"/>
      <path d="M92 196h232"/>
      <path d="M92 238h232"/>
      <path d="M92 280h232"/>
      <path d="M92 322h232"/>
    </g>
    <g stroke="#ffffff" stroke-width="5" stroke-linecap="round" opacity="0.75">
      <path d="M102 103h210"/>
      <path d="M102 145h210"/>
      <path d="M102 187h210"/>
      <path d="M102 229h210"/>
      <path d="M102 271h210"/>
    </g>
    <circle cx="208" cy="217" r="58" fill="#fff" stroke="#f0b05a" stroke-width="15"/>
    <circle cx="208" cy="217" r="22" fill="#2d6a4f"/>
    <path d="M184 217h48M208 193v48" stroke="#1b4332" stroke-width="8" stroke-linecap="round"/>
  </g>
</svg>
